<?xml version="1.0" standalone="no"?><!DOCTYPE svg PUBLIC "-//W3C//DTD SVG 1.1//EN" "http://www.w3.org/Graphics/SVG/1.1/DTD/svg11.dtd"><svg t="1642084551769" class="icon" viewBox="0 0 1024 1024" version="1.1" xmlns="http://www.w3.org/2000/svg" p-id="14011" xmlns:xlink="http://www.w3.org/1999/xlink" width="128" height="128"><defs><style type="text/css"></style></defs><path d="M800.952129 256.390068v245.109656H207.159965V256.390068" fill="#F0F0FF" p-id="14012"></path><path d="M780.583018 256.390068v245.109656a20.369111 20.369111 0 0 1 20.369111-20.369111H207.159965a20.369111 20.369111 0 0 1 20.369111 20.369111V256.390068a20.369111 20.369111 0 1 0-40.738221 0v245.109656a20.369111 20.369111 0 0 0 20.36911 20.36911h593.792164a20.369111 20.369111 0 0 0 20.36911-20.36911V256.390068a20.369111 20.369111 0 1 0-40.738221 0z" fill="#6E6E96" p-id="14013"></path><path d="M585.084369 197.678144h211.3173v304.937807h-211.3173z" fill="#6E6E96" opacity=".18" p-id="14014"></path><path d="M222.004973 212.026146H364.042855v285.530118H222.004973z" fill="#FFFFFF" opacity=".39" p-id="14015"></path><path d="M905.062727 690.028063V982.198511H118.937273v-292.170448" fill="#F0F0FF" p-id="14016"></path><path d="M884.693616 690.028063v292.178596c0-11.25597 9.11314-20.369111 20.369111-20.369111H118.937273c11.251897 0 20.369111 9.11314 20.369111 20.369111v-292.178596a20.369111 20.369111 0 1 0-40.738221 0v292.178596a20.369111 20.369111 0 0 0 20.36911 20.369111h786.133601a20.369111 20.369111 0 0 0 20.369111-20.369111v-292.178596a20.369111 20.369111 0 0 0-20.369111-20.36911 20.369111 20.369111 0 0 0-20.377258 20.36911z" fill="#6E6E96" p-id="14017"></path><path d="M619.275958 634.241143h279.765659v349.020636h-279.765659z" fill="#6E6E96" opacity=".18" p-id="14018"></path><path d="M138.593465 647.872152h188.047629v330.578443h-188.047629z" fill="#FFFFFF" opacity=".39" p-id="14019"></path><path d="M617.85012 303.230875c33.042771-0.439973 87.819383-1.495093 119.090042-62.207264 11.805936 18.596998 32.578355 30.961048 56.243188 30.961049 33.258684 0 60.814016-24.373678 65.780005-56.251336h0.802543V134.342432c0-44.763157-39.964195-81.390892-88.793026-81.390892H253.014907C204.182001 52.955614 164.22188 89.583348 164.22188 134.350579v81.390892h0.810691c4.978211 31.865437 32.52947 56.251336 65.780005 56.251336 23.656685 0 44.416882-12.347755 56.239115-30.956974 0 0 24.243315 64.838953 95.070786 64.838953 54.719579 0 103.796914-14.747236 129.877523-64.838953 0 0.004074 19.941359 62.195042 105.85012 62.195042z" fill="#E8CAA7" p-id="14020"></path><path d="M618.123066 323.599986c32.42355-0.431825 99.890118-1.336214 136.929309-73.243248a20.356889 20.356889 0 0 1-35.299669 1.588791c16.059007 25.306583 43.516568 40.412315 73.430644 40.412315 43.137702 0 79.268431-30.899941 85.912834-73.475456a20.373184 20.373184 0 0 1-20.124681 17.228194h0.802543a20.369111 20.369111 0 0 0 20.369111-20.369111V134.350579c0-27.429044-11.610393-53.179674-32.688349-72.497738C826.869785 42.982897 799.709613 32.590577 770.981019 32.590577H253.014907c-30.08925 0-59.17634 11.830379-79.814323 32.460214C154.273606 83.973695 143.85277 108.587728 143.85277 134.350579v81.390892a20.369111 20.369111 0 0 0 20.36911 20.369111h0.810691a20.369111 20.369111 0 0 1-20.124682-17.228194c6.652552 42.567367 42.775132 73.471382 85.908761 73.471382 29.914076 0 57.359415-15.101659 73.42657-40.400094a20.369111 20.369111 0 0 1-36.273312-3.792728c1.189556 3.189803 30.158505 78.074801 114.152569 78.074801 72.990671 0 121.383604-24.793281 147.936776-75.797535a20.369111 20.369111 0 0 1-38.432437-9.406455c0.004074 14.576136 32.883892 82.568227 126.49625 82.568227z m-124.190467-91.970608c-19.138816 36.754023-54.666619 53.876297-111.810122 53.876297-55.334726 0-75.214978-49.606932-76.033816-51.717172a20.470956 20.470956 0 0 0-17.020428-12.966975 20.356889 20.356889 0 0 0-19.208072 9.292388 46.06678 46.06678 0 0 1-39.043511 21.501633c-22.556753 0-42.180354-16.775999-45.659398-39.019068a20.373184 20.373184 0 0 0-20.124681-17.228194H164.22188a20.369111 20.369111 0 0 1 20.369111 20.369111V134.350579c0-14.881672 6.188136-29.270412 17.415589-40.493791 13.048452-13.048452 31.641376-20.532063 51.008327-20.52799h517.970186c37.73174 0 68.423916 27.376085 68.423916 61.021781v81.390892a20.369111 20.369111 0 0 1 20.369111-20.36911h-0.802543a20.356889 20.356889 0 0 0-20.120607 17.228194c-3.523856 22.609713-22.727854 39.019068-45.659399 39.019068a46.062707 46.062707 0 0 1-39.043511-21.501633 20.369111 20.369111 0 0 0-35.299668 1.58879c-23.86445 46.319357-61.522862 50.637609-101.258923 51.167206-68.762043 0-85.570633-46.286767-86.255035-48.262571 0.745509 2.14283 1.042898 4.159372 1.042898 6.428492a20.352815 20.352815 0 0 0-15.52941-19.778407 20.344668 20.344668 0 0 0-22.919323 10.367878z" fill="#6E6E96" p-id="14021"></path><path d="M164.22188 195.376435h0.810691a20.369111 20.369111 0 0 1-20.124682-17.228194c6.652552 42.571441 42.775132 73.471382 85.908761 73.471382 29.914076 0 57.359415-15.101659 73.42657-40.400094a20.369111 20.369111 0 0 1-36.273312-3.792729c1.189556 3.189803 30.158505 78.074801 114.152569 78.074801 72.990671 0 121.383604-24.793281 147.936776-75.797534a20.365037 20.365037 0 0 1-37.45472-3.185729c1.00216 3.116474 25.628415 76.3475 125.245587 76.3475 32.688349-0.435899 100.154917-1.336214 137.202255-73.243247a20.356889 20.356889 0 0 1-35.299669 1.58879c16.059007 25.306583 43.516568 40.412315 73.430644 40.412316 43.137702 0 79.268431-30.899941 85.912834-73.475456a20.373184 20.373184 0 0 1-20.124681 17.228194h0.802543a20.369111 20.369111 0 1 0 0-40.738221h-0.802543a20.356889 20.356889 0 0 0-20.120607 17.228193c-3.52793 22.609713-22.727854 39.019068-45.659399 39.019068a46.062707 46.062707 0 0 1-39.043511-21.501633 20.369111 20.369111 0 0 0-35.299668 1.588791c-23.86445 46.319357-61.522862 50.637609-101.258923 51.167206-68.75797 0-85.570633-46.290841-86.250961-48.266645-2.509474-7.829886-9.44312-13.272512-17.635576-13.969136s-15.961235 3.703104-19.762111 10.995246c-19.138816 36.754023-54.666619 53.876297-111.810122 53.876298-55.334726 0-75.214978-49.606932-76.033816-51.713098a20.470956 20.470956 0 0 0-17.020429-12.97105 20.356889 20.356889 0 0 0-19.208071 9.292388 46.06678 46.06678 0 0 1-39.043511 21.501633c-22.556753 0-42.180354-16.775999-45.659398-39.019068a20.373184 20.373184 0 0 0-20.124682-17.228193H164.22188a20.369111 20.369111 0 0 0 0 40.738221z" opacity=".12" p-id="14022"></path><path d="M652.567232 774.918368c43.887286-0.594778 116.617232-1.979878 158.16207-82.584521 15.688289 24.69551 43.259917 41.096717 74.677233 41.096717 44.168379 0 80.755376-32.366517 87.367189-74.681307h1.071415V550.658535c0-59.449286-53.057459-108.074427-117.912707-108.074427H168.071642C103.216394 442.559665 50.154861 491.197027 50.154861 550.650387v108.090722h1.083637c6.611813 42.31479 43.19881 74.681307 87.354967 74.681307 31.417316 0 58.988944-16.397134 74.681307-41.092643 0 0 32.191342 86.104304 126.251821 86.104304 72.664765 0 137.845919-19.586937 172.473407-86.104304 0 0 26.483918 82.588596 140.567232 82.588595z" fill="#E8CAA7" p-id="14023"></path><path d="M652.840178 795.287479c44.954627-0.602926 128.630933-1.739522 175.993189-93.620506a20.381332 20.381332 0 0 1-17.195603 11.015615 20.381332 20.381332 0 0 1-18.104065-9.426824c20.100238 31.653598 54.438485 50.543911 91.872836 50.543911 53.961848 0 99.173126-38.652424 107.495944-91.909501a20.369111 20.369111 0 0 1-20.120608 17.228194h1.071416a20.369111 20.369111 0 0 0 20.36911-20.369111V550.658535c0-70.827471-62.040237-128.443537-138.281818-128.443537H168.071642c-38.20023-0.012221-75.113132 14.987592-101.271144 41.137455C42.931974 487.204682 29.78575 518.214616 29.78575 550.650387v108.090722a20.369111 20.369111 0 0 0 20.369111 20.369111h1.083637a20.360963 20.360963 0 0 1-20.124682-17.228194c8.318745 53.248929 53.525949 91.909501 107.483723 91.909501 37.426204 0 71.76445-18.894387 91.872836-50.535763a20.360963 20.360963 0 0 1-36.269238-3.792729c1.519536 4.057527 38.37133 99.340152 145.333604 99.340152 94.21121 0 156.536615-31.75137 190.536734-97.066959a20.360963 20.360963 0 0 1-37.454721-3.181655c1.254737 3.94346 32.472436 96.732906 160.223424 96.732906z m-158.907579-112.368235c-26.691682 51.260904-75.752722 75.137575-154.406006 75.137575-79.015854 0-106.901166-72.139242-107.174112-72.868456a20.377258 20.377258 0 0 0-36.273312-3.796803c-12.592184 19.815071-34.081596 31.653598-57.489778 31.653598-33.75569 0-62.032089-24.165913-67.23436-57.457187a20.369111 20.369111 0 0 0-20.120607-17.228194H50.154861a20.369111 20.369111 0 0 1 20.36911 20.369111v-108.090722c0-21.550519 8.913523-42.327012 25.082523-58.491938 18.572555-18.572555 44.983144-29.217452 72.465148-29.213378h687.864864c53.786673 0 97.543597 39.344974 97.543596 87.70939V658.737036a20.369111 20.369111 0 0 1 20.369111-20.369111h-1.071415a20.360963 20.360963 0 0 0-20.124682 17.228194c-5.198197 33.295348-33.482744 57.457187-67.242507 57.457187-23.408182 0-44.897594-11.830379-57.48163-31.649524-3.910869-6.163693-10.815998-9.760878-18.104066-9.426825s-13.846921 4.53009-17.195603 11.015615c-36.155171 70.151217-98.851294 70.998572-140.326876 71.548538-97.820617 0-120.674759-67.755809-120.902893-68.440211a20.356889 20.356889 0 0 0-17.668167-14.07913 20.401701 20.401701 0 0 0-19.798775 10.897475z" fill="#6E6E96" p-id="14024"></path><path d="M46.081039 638.371999h1.083637a20.360963 20.360963 0 0 1-20.124682-17.228194c8.318745 53.248929 53.525949 91.909501 107.483723 91.909501 37.426204 0 71.76445-18.894387 91.872836-50.535764a20.360963 20.360963 0 0 1-36.269238-3.792728c1.519536 4.057527 38.37133 99.340152 145.333604 99.340152 94.21121 0 156.536615-31.75137 190.536734-97.066959a20.360963 20.360963 0 0 1-37.454721-3.181655c1.266959 3.951607 32.484658 96.73698 159.962699 96.73698 45.235721-0.602926 128.912027-1.739522 176.274283-93.620506a20.369111 20.369111 0 1 1-35.299668 1.58879c20.100238 31.653598 54.438485 50.543911 91.872836 50.543911 53.961848 0 99.173126-38.652424 107.495944-91.9095a20.369111 20.369111 0 0 1-20.120608 17.228193h1.071416c11.251897 0 20.369111-9.117214 20.36911-20.36911s-9.117214-20.369111-20.36911-20.369111h-1.071416a20.360963 20.360963 0 0 0-20.124681 17.228194c-5.198197 33.291274-33.482744 57.457187-67.242508 57.457187-23.408182 0-44.897594-11.830379-57.48163-31.649524-3.910869-6.163693-10.815998-9.760878-18.104065-9.426824s-13.846921 4.53009-17.195603 11.015615c-36.155171 70.151217-98.851294 70.998572-140.326877 71.548537-97.820617 0-120.674759-67.755809-120.902892-68.440211a20.356889 20.356889 0 0 0-37.458795-3.181655c-26.691682 51.260904-75.752722 75.133501-154.406005 75.133501-79.015854 0-106.901166-72.139242-107.174112-72.868456a20.377258 20.377258 0 0 0-36.273313-3.792728c-12.592184 19.810997-34.081596 31.649524-57.489777 31.649524-33.75569 0-62.032089-24.165913-67.23436-57.457188a20.365037 20.365037 0 0 0-20.120608-17.228193H46.081039a20.369111 20.369111 0 1 0 0 40.738221z" opacity=".12" p-id="14025"></path><path d="M37.399724 1003.630889H986.60435c11.251897 0 20.369111-9.117214 20.36911-20.36911s-9.117214-20.369111-20.36911-20.369111H37.399724a20.369111 20.369111 0 1 0 0 40.738221z" fill="#6E6E96" p-id="14026"></path><path d="M134.519643 794.529748c37.426204 0 71.76445-18.894387 91.872836-50.535763a20.360963 20.360963 0 0 1-36.269238-3.792729c1.519536 4.057527 38.37133 99.340152 145.333604 99.340153 94.21121 0 156.536615-31.75137 190.536734-97.06696a20.360963 20.360963 0 0 1-37.454721-3.181655c1.266959 3.951607 32.484658 96.73698 159.9627 96.73698 45.235721-0.602926 128.912027-1.739522 176.274282-93.620506a20.369111 20.369111 0 1 1-35.299668 1.588791c20.100238 31.653598 54.438485 50.543911 91.872836 50.543911 9.895314 0 19.709151-1.33214 29.176714-3.963829a20.360963 20.360963 0 0 0 14.172827-25.074375 20.356889 20.356889 0 0 0-25.070301-14.172828 68.346514 68.346514 0 0 1-18.275166 2.47281c-23.408182 0-44.897594-11.830379-57.48163-31.649524-3.910869-6.163693-10.815998-9.760878-18.104066-9.426824s-13.846921 4.53009-17.195603 11.015615c-36.155171 70.151217-98.851294 70.998572-140.326876 71.548538-97.820617 0-120.674759-67.755809-120.902893-68.440212a20.356889 20.356889 0 0 0-37.458794-3.185729c-26.691682 51.260904-75.752722 75.137575-154.406006 75.137575-79.015854 0-106.901166-72.139242-107.174112-72.868456a20.377258 20.377258 0 0 0-36.273312-3.792728c-12.592184 19.810997-34.081596 31.649524-57.489778 31.649524-11.247823 0-20.369111 9.117214-20.36911 20.36911s9.100919 20.369111 20.348741 20.369111zM226.738754 333.051253c29.914076 0 57.359415-15.101659 73.42657-40.400094a20.356889 20.356889 0 0 1-19.309917 9.3372 20.352815 20.352815 0 0 1-16.963395-13.125854c1.189556 3.189803 30.158505 78.074801 114.152569 78.0748 72.990671 0 121.383604-24.793281 147.936776-75.801608a20.356889 20.356889 0 0 1-37.45472-3.181655c1.00216 3.116474 25.628415 76.343426 125.245587 76.343427 32.688349-0.431825 100.154917-1.336214 137.202255-73.243248a20.356889 20.356889 0 0 1-35.299669 1.58879c15.183135 23.921483 63.849014 18.784394 84.067393 15.464229a20.373184 20.373184 0 0 0-6.595518-40.20455c-24.638476 4.045305-42.168133 1.849515-46.079001-0.228134 0.016295 0.008148 1.543979 0.835134 2.994259 3.132769a20.369111 20.369111 0 0 0-35.299669 1.588791c-23.86445 46.319357-61.522862 50.633535-101.258922 51.163131-68.75797 0-85.570633-46.286767-86.250962-48.26257-2.509474-7.829886-9.44312-13.272512-17.635576-13.969136s-15.961235 3.703104-19.762111 10.991172c-19.138816 36.758097-54.666619 53.880371-111.810122 53.880371-55.334726 0-75.214978-49.606932-76.033816-51.717172-2.778347-7.165853-9.373865-12.213319-17.020428-12.966975s-15.089437 2.80279-19.208072 9.292388a46.062707 46.062707 0 0 1-39.043511 21.497559 20.377258 20.377258 0 0 0 0 40.746369z" opacity=".06" p-id="14027"></path><path d="M82.211767 909.191545h855.502644v74.070234h-855.502644z" fill="#FFC894" p-id="14028"></path><path d="M709.580372 909.191545h228.134039v74.070234h-228.134039z" fill="#6E6E96" opacity=".15" p-id="14029"></path><path d="M82.211767 909.191545h224.060216v65.181154h-224.060216z" fill="#FFFFFF" opacity=".52" p-id="14030"></path><path d="M937.714411 962.892668h-855.502644a20.369111 20.369111 0 0 1 20.369111 20.369111v-74.070234a20.369111 20.369111 0 0 1-20.369111 20.369111h855.502644c-11.251897 0-20.369111-9.11314-20.369111-20.369111v74.070234a20.369111 20.369111 0 0 1 20.369111-20.369111z m0-74.070233h-855.502644a20.369111 20.369111 0 0 0-20.36911 20.36911v74.070234a20.369111 20.369111 0 0 0 20.36911 20.36911h855.502644a20.369111 20.369111 0 0 0 20.36911-20.36911v-74.070234a20.369111 20.369111 0 0 0-20.36911-20.36911z" fill="#6E6E96" p-id="14031"></path></svg>