<?xml version="1.0" standalone="no"?><!DOCTYPE svg PUBLIC "-//W3C//DTD SVG 1.1//EN" "http://www.w3.org/Graphics/SVG/1.1/DTD/svg11.dtd"><svg t="1642083857219" class="icon" viewBox="0 0 1024 1024" version="1.1" xmlns="http://www.w3.org/2000/svg" p-id="2175" xmlns:xlink="http://www.w3.org/1999/xlink" width="200" height="200"><defs><style type="text/css"></style></defs><path d="M512.00256 119.42682c216.472374 0 392.584955 176.115652 392.584955 392.590074 0 216.455992-176.113604 392.556286-392.584955 392.556286-216.475446 0-392.590074-176.100293-392.590074-392.556286C119.411462 295.541448 295.527114 119.42682 512.00256 119.42682M512.00256 72.54995c-242.239653 0-439.466944 197.105448-439.466944 439.466944 0 242.356377 197.193503 439.432132 439.466944 439.432132 242.326684 0 439.460801-197.075755 439.460801-439.432132C951.46336 269.656422 754.357912 72.54995 512.00256 72.54995L512.00256 72.54995z" p-id="2176"></path><path d="M719.115533 334.755507c11.797289 0 18.98911 6.575438 21.633824 19.668975-1.324917 11.802409-7.866566 18.377846-19.668975 19.668975L487.030846 374.093456c-26.240317 35.402107-61.646519 71.477935-106.205296 108.172194l-3.935843 3.935843c0 1.319797 1.969969 1.965874 5.900692 1.965874 89.152367 0 175.693808-3.257002 259.615108-9.833463-18.373751-24.890826-35.399035-45.238642-51.136263-60.971774-7.866566-9.157694-7.866566-18.343034 0-27.535541 10.478516-9.157694 20.314027-9.157694 29.50039 0 18.349177 18.377846 53.75026 62.292595 106.210416 131.775988 6.541649 11.802409 5.221852 22.312665-3.935843 31.47036-9.191483 6.575438-18.377846 4.610588-27.535541-5.900692-5.256664-6.546769-11.157356-13.767258-17.703101-21.633824-3.930723-3.935843-6.575438-7.192845-7.866566-9.83244-15.733132 1.319797-36.076852 2.639595-60.972798 3.930723-11.797289 1.323893-20.988772 1.969969-27.535541 1.969969l0 159.310504c1.295224 15.733132 11.802409 24.245774 31.47036 25.565572l55.071082 0c24.890826 3.935843 36.692211-17.02426 35.402107-62.936624 1.291128-13.088418 8.511618-20.309931 21.633824-21.633824 11.802409 1.323893 18.348153 8.545407 19.668975 21.633824 3.930723 76.030161-20.34372 110.141139-72.773159 102.274573l-68.839364 0c-40.656723-1.319797-62.291571-19.668975-64.902497-55.070058L538.161989 523.567425c-24.919495 2.64369-52.459132 3.935843-82.605598 3.935843-1.319797 110.141139-51.135239 180.944329-149.473969 212.410593-13.12323 5.225947-21.633824 2.616045-25.565572-7.86247-3.935843-13.126302-0.678841-22.957717 9.83244-29.50551 78.669756-23.599698 119.29781-81.926758 121.938428-175.043636l-68.83834 0c-17.053953 0-28.210286-4.576799-33.436233-13.767258-3.930723-10.478516 0.645052-20.960103 13.767258-31.467288 41.951947-32.761488 79.96498-68.83834 114.075958-108.175266L302.155794 374.092432c-11.802409 0-18.377846-6.541649-19.668975-19.668975 1.291128-11.797289 7.866566-18.343034 19.668975-19.668975l177.008486 0c-1.319797-2.609902-3.935843-7.86247-7.866566-15.733132l-5.900692-11.797289c-6.575438-10.482611-4.610588-19.668975 5.900692-27.535541 10.482611-5.225947 19.668975-2.616045 27.535541 7.866566 5.225947 7.866566 13.767258 23.599698 25.569667 47.199396L719.115533 334.754483 719.115533 334.755507 719.115533 334.755507zM719.115533 334.755507" p-id="2177"></path></svg>