<?xml version="1.0" standalone="no"?><!DOCTYPE svg PUBLIC "-//W3C//DTD SVG 1.1//EN" "http://www.w3.org/Graphics/SVG/1.1/DTD/svg11.dtd"><svg t="1642084684714" class="icon" viewBox="0 0 1024 1024" version="1.1" xmlns="http://www.w3.org/2000/svg" p-id="14173" xmlns:xlink="http://www.w3.org/1999/xlink" width="128" height="128"><defs><style type="text/css"></style></defs><path d="M907.3879 394.294662c0-154.511032-141.392171-286.42847-331.615658-310.479715 1.457651-5.101779 1.457651-10.203559 1.457651-15.305338 0-36.441281-29.881851-66.323132-66.323131-66.323132S444.58363 32.068327 444.58363 68.509609c0 5.101779 0.728826 10.203559 1.457651 15.305338C258.00427 107.866192 116.6121 239.054804 116.6121 394.294662c0 40.814235 9.474733 80.170819 28.424199 117.340925l60.492527 426.36299c6.559431 48.102491 48.831317 84.543772 96.933807 84.543772H721.537367c48.831317 0 90.374377-36.441281 96.933807-84.543772l60.492527-426.36299c18.949466-37.898932 28.424199-77.255516 28.424199-117.340925zM511.635587 23.32242c24.780071 0 44.458363 19.678292 44.458363 44.458363 0 6.559431-1.457651 13.118861-4.372954 19.678292-7.288256 15.305338-22.593594 24.780071-39.356583 24.780071-2.186477 0-4.372954 0-6.559431-0.728826-14.576512-2.186477-26.966548-10.932384-33.525978-24.051245-2.915302-5.830605-4.372954-12.390036-4.372954-19.678292 0-24.051246 19.678292-44.458363 43.729537-44.458363z m-55.390747 80.899644c0.728826 0 0.728826 0 0 0 0.728826 1.457651 1.457651 2.186477 2.186477 2.915303 1.457651 1.457651 2.186477 2.915302 3.644128 4.372953l2.186477 2.186477 3.644128 3.644128c0.728826 0.728826 2.186477 1.457651 2.915302 2.186477 1.457651 0.728826 2.915302 2.186477 4.372954 2.915303 0.728826 0.728826 2.186477 1.457651 2.915303 2.186476l4.372953 2.186477c0.728826 0.728826 2.186477 0.728826 2.915303 1.457652 1.457651 0.728826 3.644128 1.457651 5.101779 2.186476 0.728826 0 2.186477 0.728826 2.915303 0.728826 2.186477 0.728826 3.644128 0.728826 5.830605 1.457651 0.728826 0 2.186477 0.728826 2.915302 0.728826 2.915302 0.728826 5.830605 0.728826 8.745908 0.728826 2.915302 0 5.830605 0 8.745907-0.728826 0.728826 0 2.186477-0.728826 2.915303-0.728826 2.186477 0 3.644128-0.728826 5.830605-1.457651 1.457651 0 2.186477-0.728826 3.644128-0.728826 1.457651-0.728826 2.915302-1.457651 5.101779-1.457651 1.457651-0.728826 2.186477-0.728826 3.644128-1.457651l4.372954-2.186477c1.457651-0.728826 2.186477-1.457651 3.644128-2.186477 1.457651-0.728826 2.186477-1.457651 3.644128-2.915302 0.728826-0.728826 2.186477-1.457651 2.915303-2.915303 1.457651-0.728826 2.186477-2.186477 2.915302-2.915302l2.915303-2.915303c0.728826-1.457651 2.186477-2.186477 2.915302-3.644128 0.728826-1.457651 1.457651-2.186477 2.186477-3.644128 0 0 0-0.728826 0.728826-0.728826 182.206406 21.135943 318.496797 145.036299 318.496797 290.072598 0 32.068327-6.559431 64.136655-19.678292 94.018506H157.426335c-13.118861-29.881851-19.678292-61.950178-19.678292-94.018506 0-145.036299 137.019217-268.207829 318.496797-289.343772z m255.817793 896.455516H629.705338L684.36726 510.177936h82.357295l-54.661922 490.499644z m-198.969395 0V509.44911h149.409253l-54.661922 490.499644h-94.747331z m-96.933807 0L361.497509 510.177936h129.002135v490.499644H416.159431z m-104.222064 0L257.275445 510.177936h82.357295l54.661922 490.499644H311.937367z m-85.272598-65.594306L166.172242 510.177936h69.238434l54.661922 489.770818c-32.068327-5.830605-58.30605-32.068327-63.407829-64.86548z m570.670462 0c-4.372954 33.525979-31.339502 59.034875-63.407829 64.86548l54.661922-489.770818h69.238434l-60.492527 424.905338z" p-id="14174"></path><path d="M706.960854 199.698221c28.424199 18.949466 51.017794 42.271886 68.509609 67.780783 2.186477 2.915302 5.830605 5.101779 8.745907 5.101779 2.186477 0 4.372954-0.728826 5.830605-2.186477 5.101779-3.644128 6.559431-10.203559 2.915303-15.305338-18.949466-28.424199-43.729537-53.20427-74.340214-73.611388-5.101779-3.644128-11.66121-2.186477-15.305338 2.915303-2.915302 5.101779-1.457651 12.390036 3.644128 15.305338zM215.003559 310.479715c1.457651 0.728826 2.915302 0.728826 4.372953 0.728826 4.372954 0 8.017082-2.915302 10.203559-6.559431 10.932384-26.966548 27.695374-51.746619 50.288968-73.611388 4.372954-4.372954 4.372954-10.932384 0-15.305338-4.372954-4.372954-10.932384-4.372954-15.305338 0-24.780071 24.051246-43.000712 51.746619-55.390747 80.899644-2.915302 5.101779 0 11.66121 5.830605 13.847687zM465.719573 325.785053h2.186477c5.101779 0 9.474733-3.644128 10.932384-8.745907 4.372954-24.780071 32.797153-86.001423 32.797153-86.730249 2.186477-5.101779 0-11.66121-5.101779-14.576513-5.101779-2.186477-11.66121 0-14.576513 5.10178-1.457651 2.915302-29.881851 64.136655-34.98363 91.832028-0.728826 6.559431 2.915302 12.390036 8.745908 13.118861z" p-id="14175"></path></svg>