<?xml version="1.0" standalone="no"?><!DOCTYPE svg PUBLIC "-//W3C//DTD SVG 1.1//EN" "http://www.w3.org/Graphics/SVG/1.1/DTD/svg11.dtd"><svg t="1640443165788" class="icon" viewBox="0 0 1024 1024" version="1.1" xmlns="http://www.w3.org/2000/svg" p-id="12836" width="200" height="200" xmlns:xlink="http://www.w3.org/1999/xlink"><defs><style type="text/css"></style></defs><path d="M945.291636 275.130182l-45.707636 45.381818a32.581818 32.581818 0 0 1-44.869818 0 31.930182 31.930182 0 0 1-0.791273-45.381818l45.661091-45.381818a32.581818 32.581818 0 0 1 45.707636 0 31.976727 31.976727 0 0 1 0 45.381818zM861.835636 930.909091h46.545455c17.826909 0 35.746909-3.258182 35.746909 14.429091a32.209455 32.209455 0 0 1-32.302545 32.116363H103.889455a32.209455 32.209455 0 0 1-32.581819-32.116363c0-17.733818 27.927273-14.429091 45.568-14.429091h46.545455v-372.363636c0-195.025455 147.549091-325.352727 343.458909-325.352728s356.212364 131.956364 356.212364 326.981818z m-46.545454-372.363636c0-159.604364-146.804364-278.481455-307.2-278.481455A287.138909 287.138909 0 0 0 210.199273 558.545455v372.363636h279.272727v-93.090909c0-17.733818 0.512-38.539636 18.618182-38.539637a35.095273 35.095273 0 0 1 27.927273 38.539637v93.090909h279.272727v-372.363636z m-418.397091 23.64509a116.363636 116.363636 0 1 1 116.363636 116.782546 116.363636 116.363636 0 0 1-116.363636-116.782546z m110.964364-407.272727a32.209455 32.209455 0 0 1-32.581819-32.116363V78.615273a32.349091 32.349091 0 0 1 64.651637 0v64.232727a32.209455 32.209455 0 0 1-31.837091 32.069818zM123.950545 288.581818l-45.707636-45.428363a31.930182 31.930182 0 0 1 0-44.590546 32.581818 32.581818 0 0 1 45.707636-0.791273l45.707637 45.428364a31.930182 31.930182 0 0 1 0 44.590545 32.581818 32.581818 0 0 1-45.707637 0.791273z" fill="#333333" p-id="12837"></path></svg>