<?xml version="1.0" standalone="no"?><!DOCTYPE svg PUBLIC "-//W3C//DTD SVG 1.1//EN" "http://www.w3.org/Graphics/SVG/1.1/DTD/svg11.dtd"><svg t="1640443233726" class="icon" viewBox="0 0 1024 1024" version="1.1" xmlns="http://www.w3.org/2000/svg" p-id="14427" xmlns:xlink="http://www.w3.org/1999/xlink" width="200" height="200"><defs><style type="text/css"></style></defs><path d="M405.843148 904.824742c0 65.821887 53.368368 119.175258 119.190255 119.175258 65.816888 0 119.185256-53.353371 119.185256-119.175258C644.612581 905.546598 406.620993 905.010705 405.843148 904.824742z" p-id="14428"></path><path d="M807.545122 856.170435l-565.027436 0c-80.26501 0-145.567-64.873076-145.567-144.607192 0-49.880063 26.128795-96.27682 67.81649-122.557584 2.054591-18.496315 2.816439-37.214586 2.816439-49.249189l0-94.606153c0-134.900125 73.58634-263.086588 188.475452-330.059246 12.115586-31.237777 33.246377-59.037239 60.43596-79.255211C448.044741 12.39853 485.572265 0 525.033404 0c39.239183 0 76.59974 12.266556 108.039477 35.467934 27.032615 19.935029 48.143409 47.391559 60.425962 78.260409 54.958051 30.979828 101.289821 76.463767 134.501205 132.173669 35.644899 59.78409 54.489145 128.696361 54.489145 199.258304l0 95.559963c0 11.837642 0.756849 30.272969 2.827437 48.512335 42.217589 26.295761 67.800493 71.7787 67.800493 122.330629C953.116121 791.298359 887.814131 856.170435 807.545122 856.170435zM525.033404 61.606727c-52.282584 0-99.265225 34.387149-114.258238 83.611343l-3.695264 12.130583-11.171774 6.011802C294.623306 217.875595 229.180343 328.479561 229.180343 445.150318l0 94.606153c0 15.133985-1.044792 39.526126-3.973208 62.611527-0.484903 3.796244-1.014798 7.506505-1.595682 11.0448l-2.599482 16.002812-14.65508 6.905624c-29.036215 13.70527-47.805476 43.236387-47.805476 75.24201 0 45.770882 37.668496 82.995466 83.965273 82.995466l565.027436 0c46.300776 0 83.965273-37.224584 83.965273-82.995466 0-32.307564-18.294355-61.025843-47.744488-74.939071l-14.574097-6.87563-2.650472-15.901832c-0.60088-3.594284-1.150771-7.334539-1.640673-11.135782-2.96341-22.878442-4.018199-47.03263-4.018199-61.99065l0-95.559963c0-59.456155-15.835845-117.4586-45.795877-167.717588-29.501123-49.481142-71.2788-89.215227-120.810932-114.910108l-11.39373-5.900824-3.826238-12.241561C623.809725 95.650945 576.918067 61.606727 525.033404 61.606727z" p-id="14429"></path></svg>